/* XPM */
static char * program_launcher_xpm[] = {
"32 32 435 2",
"  	c None",
". 	c #0D2861",
"+ 	c #14306A",
"@ 	c #1C3974",
"# 	c #1F3C78",
"$ 	c #213F7B",
"% 	c #223F7C",
"& 	c #233F7C",
"* 	c #24417E",
"= 	c #213F7C",
"- 	c #1A3B78",
"; 	c #092B68",
"> 	c #21407C",
", 	c #2E4F8D",
"' 	c #355796",
") 	c #3A5C9C",
"! 	c #3D5F9F",
"~ 	c #4265A6",
"{ 	c #466AAB",
"] 	c #4B70B2",
"^ 	c #4E73B6",
"/ 	c #5378BC",
"( 	c #577EC3",
"_ 	c #5C84C9",
": 	c #5F88CD",
"< 	c #6088CD",
"[ 	c #4062A6",
"} 	c #3E61A5",
"| 	c #547ABF",
"1 	c #4366AC",
"2 	c #446AAF",
"3 	c #886E97",
"4 	c #B35C6B",
"5 	c #9F566B",
"6 	c #214583",
"7 	c #1C3973",
"8 	c #74A1E9",
"9 	c #7FAEF9",
"0 	c #6995E0",
"a 	c #658FDB",
"b 	c #638DD8",
"c 	c #618BD5",
"d 	c #608AD5",
"e 	c #618BD6",
"f 	c #638ED8",
"g 	c #6691DB",
"h 	c #6894DD",
"i 	c #6B97E0",
"j 	c #6D9AE2",
"k 	c #6F9CE5",
"l 	c #709EE6",
"m 	c #4A70B9",
"n 	c #5882CE",
"o 	c #6E9BE4",
"p 	c #32539A",
"q 	c #5C86D2",
"r 	c #527CC6",
"s 	c #A0576C",
"t 	c #E75E57",
"u 	c #C04E52",
"v 	c #5A8AD2",
"w 	c #5981C5",
"x 	c #7EACF6",
"y 	c #547CC7",
"z 	c #557DC9",
"A 	c #5780CC",
"B 	c #5A83CE",
"C 	c #5C86D1",
"D 	c #5E89D3",
"E 	c #618CD6",
"F 	c #6A96DF",
"G 	c #6C99E2",
"H 	c #6E9CE4",
"I 	c #4D74BB",
"J 	c #476EBB",
"K 	c #486FBB",
"L 	c #34559B",
"M 	c #4167B4",
"N 	c #274C98",
"O 	c #975067",
"P 	c #C03630",
"Q 	c #9F424F",
"R 	c #6698E1",
"S 	c #6893DA",
"T 	c #74A1EA",
"U 	c #5179C5",
"V 	c #557EC9",
"W 	c #5E88D3",
"X 	c #5F8AD5",
"Y 	c #608CD8",
"Z 	c #618EDA",
"` 	c #6290DC",
" .	c #6291DE",
"..	c #6695E1",
"+.	c #759FE3",
"@.	c #80A8E5",
"#.	c #7D9CD3",
"$.	c #6C82B1",
"%.	c #7488B1",
"&.	c #92A6C8",
"*.	c #7C89A3",
"=.	c #808B9F",
"-.	c #7A8999",
";.	c #5A7087",
">.	c #6697DD",
",.	c #6792D8",
"'.	c #719DE7",
").	c #527BC9",
"!.	c #6B8DCB",
"~.	c #819CCC",
"{.	c #90A6D0",
"].	c #9FB3D5",
"^.	c #AFBFDA",
"/.	c #BECADF",
"(.	c #CDD5E3",
"_.	c #DCE0E7",
":.	c #E9E8E8",
"<.	c #EFECE8",
"[.	c #ECEAE6",
"}.	c #EAE9E6",
"|.	c #E7E6E4",
"1.	c #E4E4E2",
"2.	c #E0E0DF",
"3.	c #D8D8D8",
"4.	c #CFCFCF",
"5.	c #CBCBCB",
"6.	c #D0D0D1",
"7.	c #325189",
"8.	c #6894DB",
"9.	c #658FD5",
"0.	c #4F78C5",
"a.	c #96A9CC",
"b.	c #D9D7D3",
"c.	c #E0DFDE",
"d.	c #E3E3E2",
"e.	c #E9E9E9",
"f.	c #EFEFEF",
"g.	c #F4F4F4",
"h.	c #F7F7F7",
"i.	c #FAFAFA",
"j.	c #FCFCFC",
"k.	c #FEFEFE",
"l.	c #FFFFFF",
"m.	c #FDFEFE",
"n.	c #31528D",
"o.	c #6793DA",
"p.	c #628BD1",
"q.	c #6C98E0",
"r.	c #4771C1",
"s.	c #A3A3A3",
"t.	c #DCDCDC",
"u.	c #FDFDFE",
"v.	c #365794",
"w.	c #6591D8",
"x.	c #5F88CE",
"y.	c #6994DC",
"z.	c #F2F2F2",
"A.	c #909090",
"B.	c #B4B4B4",
"C.	c #DDDDDD",
"D.	c #DBDBDB",
"E.	c #D9D9D9",
"F.	c #DEDEDE",
"G.	c #3A5C9A",
"H.	c #648FD6",
"I.	c #6690D8",
"J.	c #4770C0",
"K.	c #F0F0F0",
"L.	c #BABABA",
"M.	c #B1B1B1",
"N.	c #BEBEBE",
"O.	c #BDBDBD",
"P.	c #B9B9B9",
"Q.	c #CCCCCC",
"R.	c #3F62A1",
"S.	c #618CD4",
"T.	c #5980C5",
"U.	c #638CD4",
"V.	c #4670BF",
"W.	c #B8B8B8",
"X.	c #8E8E8E",
"Y.	c #E3E3E3",
"Z.	c #C2C2C2",
"`.	c #AEAEAE",
" +	c #ACACAC",
".+	c #4368A8",
"++	c #5F8AD2",
"@+	c #567DC1",
"#+	c #5F88CF",
"$+	c #456FBE",
"%+	c #9E9E9E",
"&+	c #969696",
"*+	c #9C9C9C",
"=+	c #878787",
"-+	c #949494",
";+	c #A8A8A8",
">+	c #476DAF",
",+	c #5D87CF",
"'+	c #5278BC",
")+	c #5C84CA",
"!+	c #446EBE",
"~+	c #B6B6B6",
"{+	c #B5B5B6",
"]+	c #7C7C7C",
"^+	c #8F8F8F",
"/+	c #A9A9A9",
"(+	c #ECECEC",
"_+	c #4C73B6",
":+	c #5A84CC",
"<+	c #4F74B7",
"[+	c #587FC6",
"}+	c #436CBD",
"|+	c #B3B3B3",
"1+	c #A5A5A5",
"2+	c #E4E4E4",
"3+	c #5179BD",
"4+	c #5881CA",
"5+	c #4C70B2",
"6+	c #557BC0",
"7+	c #426CBC",
"8+	c #557FC5",
"9+	c #557EC6",
"0+	c #486CAD",
"a+	c #5277BC",
"b+	c #416ABA",
"c+	c #FEFFFF",
"d+	c #5984CD",
"e+	c #537BC3",
"f+	c #4568A9",
"g+	c #4E73B7",
"h+	c #4069B9",
"i+	c #DFE1E1",
"j+	c #A4A4A4",
"k+	c #E5E6E6",
"l+	c #FEFEFF",
"m+	c #FDFEFF",
"n+	c #FBFDFE",
"o+	c #5078C1",
"p+	c #4264A5",
"q+	c #4B6FB3",
"r+	c #3F67B8",
"s+	c #F9F7F4",
"t+	c #B7B8B8",
"u+	c #B9B7B5",
"v+	c #F1EBEB",
"w+	c #C3695C",
"x+	c #A29F9E",
"y+	c #CB7F76",
"z+	c #FCFDFF",
"A+	c #FBFDFF",
"B+	c #FBFCFF",
"C+	c #FAFCFE",
"D+	c #F9FCFF",
"E+	c #F8FBFE",
"F+	c #F7FBFE",
"G+	c #F7F9FE",
"H+	c #628ED9",
"I+	c #4D75BE",
"J+	c #3E60A0",
"K+	c #476BAE",
"L+	c #3D66B7",
"M+	c #FFFDF9",
"N+	c #3186C8",
"O+	c #98AEBA",
"P+	c #377DB3",
"Q+	c #E2E5EA",
"R+	c #E4E1E4",
"S+	c #CD1700",
"T+	c #A11B00",
"U+	c #731B0D",
"V+	c #F9FBFE",
"W+	c #F8FAFE",
"X+	c #F6F9FE",
"Y+	c #F6F9FD",
"Z+	c #F5F8FE",
"`+	c #F4F8FD",
" @	c #F3F8FE",
".@	c #F2F7FD",
"+@	c #F1F6FE",
"@@	c #F0F6FD",
"#@	c #EFF5FE",
"$@	c #6693DF",
"%@	c #4B72BB",
"&@	c #3C5C9D",
"*@	c #4567AA",
"=@	c #3C64B5",
"-@	c #006CC8",
";@	c #004592",
">@	c #003C87",
",@	c #C9CBCD",
"'@	c #D9D7DC",
")@	c #DE1C00",
"!@	c #A81E00",
"~@	c #812315",
"{@	c #FAFFFF",
"]@	c #F2F7FE",
"^@	c #F0F5FD",
"/@	c #EFF5FD",
"(@	c #EDF4FD",
"_@	c #EDF3FD",
":@	c #EBF3FC",
"<@	c #EBF2FC",
"[@	c #EAF1FC",
"}@	c #E8F1FD",
"|@	c #E6EFFD",
"1@	c #6998E4",
"2@	c #486EB8",
"3@	c #395999",
"4@	c #4163A6",
"5@	c #3C63B4",
"6@	c #0072D2",
"7@	c #005BAE",
"8@	c #00428F",
"9@	c #C5CCD6",
"0@	c #D2D2DB",
"a@	c #ED1E00",
"b@	c #BD2000",
"c@	c #7C1D0E",
"d@	c #F3FDFF",
"e@	c #EAF2FC",
"f@	c #E9F1FD",
"g@	c #E8F0FD",
"h@	c #E7F0FD",
"i@	c #E6EFFC",
"j@	c #E5EEFC",
"k@	c #E4EDFC",
"l@	c #E3EDFC",
"m@	c #E2ECFC",
"n@	c #E1ECFC",
"o@	c #C0D5F7",
"p@	c #6D9AE4",
"q@	c #456AB4",
"r@	c #375595",
"s@	c #3F60A2",
"t@	c #3A62B3",
"u@	c #FEFDFE",
"v@	c #0075D6",
"w@	c #006DC8",
"x@	c #004491",
"y@	c #BAC3D0",
"z@	c #CBCFDA",
"A@	c #7B1D0E",
"B@	c #EBF9FF",
"C@	c #E3ECFC",
"D@	c #E2ECFB",
"E@	c #E1EBFB",
"F@	c #E2EDFD",
"G@	c #E4EEFE",
"H@	c #D1E0F8",
"I@	c #C0D4F6",
"J@	c #A9C5F4",
"K@	c #35589E",
"L@	c #345392",
"M@	c #3C5D9F",
"N@	c #3A60B1",
"O@	c #F6F8FE",
"P@	c #B5C0D0",
"Q@	c #C5CBDA",
"R@	c #EDFCFF",
"S@	c #D1DFF5",
"T@	c #B9CAE8",
"U@	c #A4BADF",
"V@	c #90ABD7",
"W@	c #7C9CD3",
"X@	c #688DCF",
"Y@	c #5780CA",
"Z@	c #557FCA",
"`@	c #547DCA",
" #	c #527AC7",
".#	c #4B72BF",
"+#	c #385CA4",
"@#	c #0B1E45",
"##	c #314F8E",
"$#	c #3A599C",
"%#	c #395FB0",
"&#	c #E5EBFA",
"*#	c #0076D6",
"=#	c #004692",
"-#	c #8F9EB6",
";#	c #8893B0",
">#	c #F02100",
",#	c #731609",
"'#	c #4069AE",
")#	c #4267AE",
"!#	c #4C73BF",
"~#	c #4E75C2",
"{#	c #466CB8",
"]#	c #3C61A9",
"^#	c #33569D",
"/#	c #294889",
"(#	c #1F396F",
"_#	c #122753",
":#	c #061537",
"<#	c #030B1C",
"[#	c #203D78",
"}#	c #39589A",
"|#	c #4065B3",
"1#	c #516DB0",
"2#	c #007CDB",
"3#	c #004994",
"4#	c #2E4D89",
"5#	c #3C569A",
"6#	c #F42400",
"7#	c #72150A",
"8#	c #335CA7",
"9#	c #2B4C8F",
"0#	c #213C76",
"a#	c #162C5C",
"b#	c #091A40",
"c#	c #05122E",
"d#	c #030C1F",
"e#	c #1D3871",
"f#	c #34569E",
"g#	c #3F5EAA",
"h#	c #007EDB",
"i#	c #004A95",
"j#	c #1B3569",
"k#	c #192856",
"l#	c #F52600",
"m#	c #711001",
"n#	c #040E23",
"o#	c #060C25",
"p#	c #0082E0",
"q#	c #004B96",
"r#	c #EF2700",
"s#	c #761000",
"t#	c #007DDA",
"u#	c #004A94",
"v#	c #9B1301",
"w#	c #A91900",
"x#	c #460601",
"y#	c #0079D4",
"z#	c #006EC8",
"A#	c #00417A",
"B#	c #001F3F",
"                                                                ",
"                                  . + @ # $ % & * = - ;         ",
"          > , ' ) ! ~ { ] ^ / ( _ : < _ [ } | 1 2 3 4 5 6       ",
"      7 8 9 0 a b c d e f g h i j k l m n o p q r s t u v       ",
"      w x y z A B C D E f g h F G H l I J K L M N O P Q R       ",
"      S T U V A B C W X Y Z `  ...+.@.#.$.%.&.*.=.-.;.>.,.      ",
"      ,.'.U ).!.~.{.].^./.(._.:.<.[.}.|.1.2.3.4.5.5.6.7.8.      ",
"      9.o 0.a.b.c.d.e.f.g.h.i.j.k.l.l.l.l.l.l.l.l.l.m.n.o.      ",
"      p.q.r.l.j.s.t.l.k.l.l.l.l.l.l.l.l.l.l.l.l.l.l.u.v.w.      ",
"      x.y.r.l.z.A.B.j.C.D.E.F.l.k.l.l.l.l.l.l.l.l.l.u.G.H.      ",
"      _ I.J.l.K.L.M.N.O.4.P.Q.P.k.k.l.l.l.l.l.l.l.l.m.R.S.      ",
"      T.U.V.l.K.W.X.Y.Z.`. +4.Y.W.l.l.l.l.l.l.l.l.l.m..+++      ",
"      @+#+$+l.K.W.%+P.M.&+*+=+-+;+l.l.l.l.l.l.l.l.l.m.>+,+      ",
"      '+)+!+l.K.W.~+{+]+^+/+(+l.l.k.l.l.l.l.l.l.l.l.k._+:+      ",
"      <+[+}+l.K.W.|+l.l.F.1+2+l.l.l.l.l.l.l.l.l.l.l.m.3+4+      ",
"      5+6+7+l.K.W.|+l.l.C.1+2+l.l.l.l.l.l.l.l.l.l.l.m.8+9+      ",
"      0+a+b+l.K.W.|+l.l.C.1+2+l.l.l.l.l.l.l.l.l.l.c+k.d+e+      ",
"      f+g+h+l.K.W.|+l.k.i+j+k+k.l.l.l.l.l.l.c+l+l+m+n+D o+      ",
"      p+q+r+l.s+t+u+k.v+w+x+y+l.l+m+u.z+A+B+C+D+E+F+G+H+I+      ",
"      J+K+L+M+N+O+P+Q+R+S+T+U+l.V+W+X+Y+Z+`+ @.@+@@@#@$@%@      ",
"      &@*@=@l.-@;@>@,@'@)@!@~@{@]@+@^@/@(@_@:@<@[@}@|@1@2@      ",
"      3@4@5@l.6@7@8@9@0@a@b@c@d@e@f@g@h@i@j@k@l@m@n@o@p@q@      ",
"      r@s@t@u@v@w@x@y@z@a@b@A@B@C@D@E@n@F@G@F@H@I@J@T y K@      ",
"      L@M@N@O@v@w@x@P@Q@a@b@A@R@S@T@U@V@W@X@Y@Z@`@ #.#+#@#      ",
"      ##$#%#&#*#w@=#-#;#>#b@,#'#)#2@!#~#{#]#^#/#(#_#:#<#        ",
"      [#}#|#1#2#w@3#4#5#6#b@7#8#9#0#a#b#c#d#                    ",
"        e#f#g#h#w@i#j#k#l#b@m#                                  ",
"          n#o#p#w@q#    r#b@s#                                  ",
"              t#w@u#    v#w#x#                                  ",
"              y#z#i#                                            ",
"                A#B#                                            ",
"                                                                "};
